<svg width="30" height="30" viewBox="0 0 30 30" fill="none" xmlns="http://www.w3.org/2000/svg">
<path d="M23.2946 19.5877L25.4402 13.151C27.3145 7.52802 28.2516 4.71653 26.7676 3.23244C25.2835 1.74836 22.472 2.68552 16.849 4.55984L10.4123 6.7054C5.87404 8.21817 3.6049 8.97455 2.96007 10.0837C2.34664 11.1389 2.34664 12.4421 2.96007 13.4973C3.6049 14.6065 5.87404 15.3629 10.4123 16.8756C10.9748 17.0631 11.6075 16.9292 12.0287 16.512L18.9107 9.69369C19.2979 9.3101 19.9227 9.31301 20.3063 9.70019C20.6899 10.0874 20.687 10.7122 20.2998 11.0958L13.5289 17.804C13.0647 18.2639 12.9177 18.9678 13.1244 19.5877C14.6371 24.1259 15.3935 26.3951 16.5027 27.0399C17.5579 27.6534 18.8611 27.6534 19.9163 27.0399C21.0254 26.3951 21.7818 24.1259 23.2946 19.5877Z" fill="#9A9893"/>
</svg>
