<svg width="12" height="13" viewBox="0 0 12 13" fill="none" xmlns="http://www.w3.org/2000/svg">
<path d="M3.70444 8.7785L1.21906 6.29313C1.08514 6.15921 0.903505 6.08397 0.714111 6.08397C0.524717 6.08397 0.34308 6.15921 0.209158 6.29313C0.0752365 6.42705 0 6.60869 0 6.79808C0 6.89186 0.0184712 6.98472 0.0543586 7.07136C0.0902461 7.158 0.142847 7.23672 0.209158 7.30303L3.20306 10.2969C3.4824 10.5763 3.93363 10.5763 4.21297 10.2969L11.7908 2.71906C11.9248 2.58514 12 2.40351 12 2.21411C12 2.02472 11.9248 1.84308 11.7908 1.70916C11.6569 1.57524 11.4753 1.5 11.2859 1.5C11.0965 1.5 10.9149 1.57524 10.7809 1.70916L3.70444 8.7785Z" fill="#DDD5BF"/>
</svg>
