<svg width="170" height="130" viewBox="0 0 170 130" fill="none" xmlns="http://www.w3.org/2000/svg">
<rect width="170" height="130" fill="#D3D3D3"/>
<g clip-path="url(#clip0_1472_4525)">
<path d="M45.2964 45.1462C45.2964 34.1834 54.1837 25.2961 65.1465 25.2961C76.1094 25.2961 84.9966 34.1834 84.9966 45.1462V64.9963H65.1465C54.1837 64.9963 45.2964 56.1091 45.2964 45.1462Z" fill="#BFBFBF"/>
<path d="M45.2969 84.8493C45.2969 95.8122 54.1842 104.699 65.147 104.699C76.1099 104.699 84.9971 95.8122 84.9971 84.8493V64.9993H65.147C54.1842 64.9993 45.2969 73.8864 45.2969 84.8493Z" fill="#BFBFBF"/>
<path d="M124.7 45.1462C124.7 34.1834 115.813 25.2961 104.85 25.2961C93.8872 25.2961 85 34.1834 85 45.1462V64.9963H104.85C115.813 64.9963 124.7 56.1091 124.7 45.1462Z" fill="#BFBFBF"/>
<path d="M124.7 84.8493C124.7 95.8122 115.813 104.699 104.85 104.699C93.8872 104.699 85 95.8122 85 84.8493V64.9993H104.85C115.813 64.9993 124.7 73.8864 124.7 84.8493Z" fill="#BFBFBF"/>
<path d="M82.2674 81.8354H64.5435V77.4045H68.9745V51.9264H64.5435V47.4954H82.2674C84.2521 47.4954 86.126 47.717 87.8891 48.1601C89.6523 48.5939 91.2124 49.2032 92.5694 49.9878C93.9356 50.7633 95.1587 51.6864 96.2387 52.7572C97.3281 53.828 98.2235 55.0003 98.9251 56.2742C99.6359 57.5481 100.176 58.896 100.545 60.3176C100.914 61.7299 101.099 63.1792 101.099 64.6654C101.099 66.1516 100.914 67.6056 100.545 69.0272C100.176 70.4395 99.6359 71.7826 98.9251 73.0566C98.2235 74.3305 97.3281 75.5029 96.2387 76.5737C95.1587 77.6445 93.9356 78.5723 92.5694 79.3569C91.2124 80.1323 89.6523 80.7416 87.8891 81.1847C86.126 81.6185 84.2521 81.8354 82.2674 81.8354ZM82.2674 77.4045C83.7074 77.4045 84.9952 77.0859 86.1307 76.449C87.2661 75.8028 88.1938 74.9074 88.9138 73.7627C89.643 72.6181 90.1924 71.2796 90.5616 69.7472C90.9401 68.2056 91.1294 66.5117 91.1294 64.6654C91.1294 63.1884 91.0186 61.813 90.7969 60.5391C90.5755 59.2652 90.2293 58.0974 89.7585 57.0359C89.2877 55.965 88.7061 55.0557 88.0138 54.308C87.3307 53.5511 86.4999 52.9649 85.5214 52.5495C84.5429 52.134 83.4582 51.9264 82.2674 51.9264H77.8364V77.4045H82.2674ZM103.771 80.8247C102.913 79.9569 102.484 78.9091 102.484 77.6814C102.484 76.4537 102.913 75.4106 103.771 74.5521C104.639 73.6843 105.687 73.2505 106.915 73.2505C108.142 73.2505 109.185 73.6843 110.044 74.5521C110.912 75.4106 111.346 76.4537 111.346 77.6814C111.346 78.9091 110.912 79.9569 110.044 80.8247C109.185 81.6831 108.142 82.1123 106.915 82.1123C105.687 82.1123 104.639 81.6831 103.771 80.8247Z" fill="#D3D3D3"/>
</g>
<defs>
<clipPath id="clip0_1472_4525">
<rect width="80" height="80" fill="white" transform="translate(45 25)"/>
</clipPath>
</defs>
</svg>
