<svg width="270" height="280" viewBox="0 0 270 280" fill="none" xmlns="http://www.w3.org/2000/svg">
<rect width="270" height="280" fill="#D3D3D3"/>
<g clip-path="url(#clip0_1472_4524)">
<path d="M75.4443 92.2192C75.4443 75.775 88.7753 62.4441 105.22 62.4441C121.664 62.4441 134.995 75.775 134.995 92.2192V121.994H105.22C88.7753 121.994 75.4443 108.664 75.4443 92.2192Z" fill="#BFBFBF"/>
<path d="M75.4453 151.774C75.4453 168.218 88.7762 181.549 105.221 181.549C121.665 181.549 134.996 168.218 134.996 151.774V121.999H105.221C88.7762 121.999 75.4453 135.33 75.4453 151.774Z" fill="#BFBFBF"/>
<path d="M194.55 92.2192C194.55 75.775 181.219 62.4441 164.775 62.4441C148.331 62.4441 135 75.775 135 92.2192V121.994H164.775C181.219 121.994 194.55 108.664 194.55 92.2192Z" fill="#BFBFBF"/>
<path d="M194.55 151.774C194.55 168.218 181.219 181.549 164.775 181.549C148.331 181.549 135 168.218 135 151.774V121.999H164.775C181.219 121.999 194.55 135.33 194.55 151.774Z" fill="#BFBFBF"/>
<path d="M130.901 147.253H104.315V140.607H110.962V102.389H104.315V95.7429H130.901C133.878 95.7429 136.689 96.0753 139.333 96.74C141.978 97.3907 144.318 98.3047 146.354 99.4815C148.403 100.645 150.238 102.029 151.858 103.636C153.492 105.242 154.835 107 155.887 108.911C156.954 110.822 157.764 112.844 158.317 114.976C158.871 117.095 159.148 119.269 159.148 121.498C159.148 123.727 158.871 125.908 158.317 128.041C157.764 130.159 156.954 132.174 155.887 134.085C154.835 135.996 153.492 137.754 151.858 139.36C150.238 140.967 148.403 142.358 146.354 143.535C144.318 144.698 141.978 145.612 139.333 146.277C136.689 146.928 133.878 147.253 130.901 147.253ZM130.901 140.607C133.061 140.607 134.992 140.129 136.696 139.173C138.399 138.204 139.791 136.861 140.871 135.144C141.964 133.427 142.788 131.419 143.342 129.121C143.91 126.808 144.194 124.267 144.194 121.498C144.194 119.282 144.028 117.219 143.695 115.308C143.363 113.398 142.844 111.646 142.138 110.054C141.431 108.447 140.559 107.083 139.52 105.962C138.496 104.827 137.25 103.947 135.782 103.324C134.314 102.701 132.687 102.389 130.901 102.389H124.254V140.607H130.901ZM163.157 145.737C161.869 144.435 161.225 142.864 161.225 141.022C161.225 139.18 161.869 137.616 163.157 136.328C164.459 135.026 166.03 134.376 167.872 134.376C169.713 134.376 171.278 135.026 172.566 136.328C173.867 137.616 174.518 139.18 174.518 141.022C174.518 142.864 173.867 144.435 172.566 145.737C171.278 147.024 169.713 147.668 167.872 147.668C166.03 147.668 164.459 147.024 163.157 145.737Z" fill="#D3D3D3"/>
</g>
<path d="M82.0117 215.973H81.0859V205.531H82.0117V215.973ZM76.4688 206.34C76.9844 206.344 77.4434 206.496 77.8457 206.797C78.248 207.094 78.5625 207.516 78.7891 208.062C79.0156 208.609 79.1289 209.246 79.1289 209.973C79.1289 210.699 79.0156 211.336 78.7891 211.883C78.5625 212.43 78.248 212.852 77.8457 213.148C77.4434 213.445 76.9844 213.594 76.4688 213.594C75.9531 213.594 75.4922 213.445 75.0859 213.148C74.6836 212.852 74.3691 212.43 74.1426 211.883C73.9199 211.336 73.8086 210.699 73.8086 209.973C73.8086 209.246 73.9199 208.609 74.1426 208.062C74.3691 207.516 74.6836 207.094 75.0859 206.797C75.4883 206.496 75.9492 206.344 76.4688 206.34ZM76.4688 207.16C76.1211 207.164 75.8125 207.283 75.543 207.518C75.2773 207.748 75.0703 208.076 74.9219 208.502C74.7734 208.924 74.6992 209.414 74.6992 209.973C74.6992 210.531 74.7734 211.023 74.9219 211.449C75.0703 211.871 75.2793 212.197 75.5488 212.428C75.8184 212.658 76.125 212.773 76.4688 212.773C76.8125 212.773 77.1191 212.658 77.3887 212.428C77.6582 212.197 77.8672 211.871 78.0156 211.449C78.1641 211.023 78.2383 210.531 78.2383 209.973C78.2383 209.414 78.1641 208.924 78.0156 208.502C77.8672 208.076 77.6582 207.748 77.3887 207.518C77.123 207.283 76.8164 207.164 76.4688 207.16ZM89.2188 213.336H84.4023V206.562H89.2188V213.336ZM85.3047 212.586H88.3164V207.301H85.3047V212.586ZM92.3828 215.973H91.457V205.531H92.3828V215.973ZM97.8906 208.73C97.8906 209.305 98.0176 209.877 98.2715 210.447C98.5254 211.014 98.8672 211.52 99.2969 211.965C99.7305 212.406 100.203 212.738 100.715 212.961L100.199 213.688C99.5859 213.406 99.0332 212.982 98.541 212.416C98.0488 211.846 97.6816 211.203 97.4395 210.488C97.1973 211.254 96.8301 211.947 96.3379 212.568C95.8496 213.186 95.3086 213.645 94.7148 213.945L94.1641 213.219C94.6562 212.98 95.1152 212.621 95.541 212.141C95.9707 211.66 96.3145 211.119 96.5723 210.518C96.8301 209.912 96.9609 209.316 96.9648 208.73V207.371H94.5039V206.609H100.375V207.371H97.8906V208.73ZM102.754 215.949H101.828V205.531H102.754V215.949ZM114.062 211.098H104.523V210.371H114.062V211.098ZM112.867 214.145H106.609V215.141H113.207V215.809H105.684V213.512H111.953V212.621H105.672V211.93H112.867V214.145ZM112.832 208.004H106.68V208.918H113.02V209.586H105.766V207.371H111.906V206.516H105.73V205.848H112.832V208.004ZM121.469 207.711C121.469 208.121 121.576 208.516 121.791 208.895C122.01 209.273 122.314 209.607 122.705 209.896C123.1 210.186 123.551 210.406 124.059 210.559L123.625 211.262C123.027 211.082 122.502 210.809 122.049 210.441C121.6 210.07 121.26 209.635 121.029 209.135C120.807 209.682 120.463 210.158 119.998 210.564C119.537 210.967 118.996 211.27 118.375 211.473L117.918 210.746C118.434 210.59 118.891 210.361 119.289 210.061C119.691 209.756 120.004 209.4 120.227 208.994C120.453 208.588 120.566 208.16 120.566 207.711V207.512H118.211V206.75H120.566V205.484H121.492V206.75H123.824V207.512H121.469V207.711ZM126.062 208.109H127.633V208.883H126.062V211.59H125.148V205.531H126.062V208.109ZM126.25 212.902H123.297C123.348 213.254 123.531 213.59 123.848 213.91C124.168 214.227 124.574 214.498 125.066 214.725C125.562 214.951 126.09 215.109 126.648 215.199L126.309 215.914C125.527 215.785 124.82 215.539 124.188 215.176C123.555 214.812 123.092 214.375 122.799 213.863C122.51 214.371 122.053 214.803 121.428 215.158C120.803 215.518 120.102 215.766 119.324 215.902L118.973 215.199C119.535 215.109 120.062 214.953 120.555 214.73C121.051 214.504 121.457 214.232 121.773 213.916C122.09 213.6 122.273 213.262 122.324 212.902H119.383V212.152H126.25V212.902ZM132.016 208.73C132.016 209.305 132.143 209.877 132.396 210.447C132.65 211.014 132.992 211.52 133.422 211.965C133.855 212.406 134.328 212.738 134.84 212.961L134.324 213.688C133.711 213.406 133.158 212.982 132.666 212.416C132.174 211.846 131.807 211.203 131.564 210.488C131.322 211.254 130.955 211.947 130.463 212.568C129.975 213.186 129.434 213.645 128.84 213.945L128.289 213.219C128.781 212.98 129.24 212.621 129.666 212.141C130.096 211.66 130.439 211.119 130.697 210.518C130.955 209.912 131.086 209.316 131.09 208.73V207.371H128.629V206.609H134.5V207.371H132.016V208.73ZM136.879 215.949H135.953V205.531H136.879V215.949ZM149.957 209.469H146.875V210.699H151.164V211.449H141.672V210.699H145.973V209.469H142.902V205.977H149.957V209.469ZM143.805 208.719H149.043V206.715H143.805V208.719ZM146.875 212.469C146.875 212.914 147.037 213.324 147.361 213.699C147.686 214.074 148.119 214.389 148.662 214.643C149.205 214.893 149.797 215.062 150.438 215.152L150.062 215.891C149.238 215.75 148.5 215.494 147.848 215.123C147.195 214.752 146.719 214.291 146.418 213.74C146.113 214.291 145.633 214.752 144.977 215.123C144.324 215.494 143.586 215.75 142.762 215.891L142.41 215.152C143.047 215.062 143.635 214.893 144.174 214.643C144.713 214.389 145.143 214.074 145.463 213.699C145.787 213.324 145.949 212.914 145.949 212.469V212.105H146.875V212.469ZM160.891 212H160.012V209.176H158.652V211.836H157.773V205.707H158.652V208.414H160.012V205.543H160.891V212ZM157.328 207.488H151.984V206.727H154.211V205.578H155.125V206.727H157.328V207.488ZM154.668 208.016C155.105 208.016 155.492 208.09 155.828 208.238C156.168 208.383 156.432 208.59 156.619 208.859C156.807 209.125 156.902 209.438 156.906 209.797C156.902 210.148 156.807 210.459 156.619 210.729C156.432 210.998 156.168 211.207 155.828 211.355C155.492 211.504 155.105 211.578 154.668 211.578C154.234 211.578 153.848 211.504 153.508 211.355C153.168 211.207 152.904 210.998 152.717 210.729C152.529 210.459 152.438 210.148 152.441 209.797C152.438 209.441 152.529 209.129 152.717 208.859C152.904 208.59 153.166 208.383 153.502 208.238C153.842 208.09 154.23 208.016 154.668 208.016ZM154.668 208.707C154.391 208.707 154.145 208.752 153.93 208.842C153.719 208.932 153.555 209.059 153.438 209.223C153.32 209.387 153.262 209.578 153.262 209.797C153.262 210.012 153.32 210.203 153.438 210.371C153.559 210.535 153.725 210.662 153.936 210.752C154.15 210.842 154.395 210.887 154.668 210.887C154.941 210.887 155.184 210.842 155.395 210.752C155.609 210.662 155.775 210.535 155.893 210.371C156.014 210.203 156.074 210.012 156.074 209.797C156.074 209.578 156.016 209.387 155.898 209.223C155.781 209.059 155.615 208.932 155.4 208.842C155.189 208.752 154.945 208.707 154.668 208.707ZM155.734 212.668C155.727 213.129 155.848 213.572 156.098 213.998C156.352 214.42 156.717 214.76 157.193 215.018C157.51 214.834 157.779 214.607 158.002 214.338C158.229 214.068 158.4 213.789 158.518 213.5C158.635 213.207 158.695 212.93 158.699 212.668V212.293H159.602V212.668C159.598 213.008 159.68 213.342 159.848 213.67C160.02 213.998 160.266 214.291 160.586 214.549C160.91 214.803 161.289 214.996 161.723 215.129L161.289 215.832C160.777 215.652 160.338 215.395 159.971 215.059C159.604 214.727 159.326 214.344 159.139 213.91C158.971 214.352 158.723 214.75 158.395 215.105C158.07 215.461 157.676 215.73 157.211 215.914C156.727 215.734 156.32 215.473 155.992 215.129C155.668 214.789 155.424 214.398 155.26 213.957C155.064 214.375 154.785 214.748 154.422 215.076C154.062 215.404 153.641 215.656 153.156 215.832L152.711 215.129C153.133 214.984 153.504 214.779 153.824 214.514C154.148 214.248 154.396 213.953 154.568 213.629C154.744 213.305 154.832 212.984 154.832 212.668V212.293H155.734V212.668ZM164.535 213.008H169.738V211.789H170.664V215.809H163.621V211.789H164.535V213.008ZM169.738 215.07V213.734H164.535V215.07H169.738ZM171.906 211.051H162.414V210.289H171.906V211.051ZM167.641 206.141C167.641 206.555 167.82 206.953 168.18 207.336C168.539 207.715 169.006 208.037 169.58 208.303C170.158 208.564 170.754 208.734 171.367 208.812L171.027 209.551C170.484 209.469 169.957 209.326 169.445 209.123C168.938 208.916 168.484 208.658 168.086 208.35C167.688 208.041 167.381 207.697 167.166 207.318C166.951 207.697 166.643 208.041 166.24 208.35C165.842 208.658 165.389 208.916 164.881 209.123C164.373 209.326 163.848 209.469 163.305 209.551L162.953 208.812C163.578 208.73 164.178 208.561 164.752 208.303C165.33 208.041 165.797 207.723 166.152 207.348C166.512 206.969 166.691 206.566 166.691 206.141V205.648H167.641V206.141ZM181.375 215.949H180.461V205.531H181.375V215.949ZM174.367 212.469C176.129 212.461 177.789 212.293 179.348 211.965L179.477 212.75C178.59 212.934 177.727 213.066 176.887 213.148C176.047 213.227 175.188 213.266 174.309 213.266H173.465V206.562H174.367V212.469ZM191.219 209.656H192.965V210.43H191.219V215.973H190.305V205.531H191.219V209.656ZM188.477 207.312H184.527V212.586C185.5 212.586 186.35 212.559 187.076 212.504C187.803 212.449 188.543 212.352 189.297 212.211L189.414 213.008C188.645 213.148 187.889 213.242 187.146 213.289C186.404 213.336 185.5 213.359 184.434 213.359H183.613V206.551H188.477V207.312ZM194.629 215.07C194.492 215.07 194.365 215.037 194.248 214.971C194.135 214.9 194.043 214.807 193.973 214.689C193.906 214.572 193.875 214.445 193.879 214.309C193.875 214.176 193.906 214.053 193.973 213.939C194.043 213.822 194.135 213.73 194.248 213.664C194.365 213.594 194.492 213.559 194.629 213.559C194.762 213.559 194.885 213.594 194.998 213.664C195.115 213.73 195.207 213.822 195.273 213.939C195.344 214.053 195.379 214.176 195.379 214.309C195.379 214.445 195.344 214.572 195.273 214.689C195.207 214.807 195.115 214.9 194.998 214.971C194.885 215.037 194.762 215.07 194.629 215.07Z" fill="#828282"/>
<defs>
<clipPath id="clip0_1472_4524">
<rect width="120" height="120" fill="white" transform="translate(75 62)"/>
</clipPath>
</defs>
</svg>
