<svg width="310" height="447" viewBox="0 0 310 447" fill="none" xmlns="http://www.w3.org/2000/svg">
<path d="M178.424 258.456C178.424 286.066 215.419 444.925 187.894 444.925C160.368 444.925 76.7527 456.494 95.6927 424.999C134.567 309.019 114.63 267.455 134.566 255.957C163.473 213.964 151.013 227.962 178.424 258.456Z" fill="#DBD6CF"/>
<path d="M0.00195312 77.989C0.00195312 35.1891 34.6988 0.492188 77.499 0.492188C120.299 0.492188 154.996 35.1891 154.996 77.989V155.486H77.499C34.6988 155.486 0.00195312 120.789 0.00195312 77.989Z" fill="#EAD6C8"/>
<path d="M0.00195312 232.994C0.00195312 275.795 34.6988 310.491 77.499 310.491C120.299 310.491 154.996 275.795 154.996 232.994V155.498H77.499C34.6988 155.498 0.00195312 190.194 0.00195312 232.994Z" fill="#D8D7E8"/>
<path d="M310.002 77.989C310.002 35.1891 275.305 0.492188 232.505 0.492188C189.705 0.492188 155.009 35.1891 155.009 77.989V155.486H232.505C275.305 155.486 310.002 120.789 310.002 77.989Z" fill="#CED9D0"/>
<path d="M310.002 232.994C310.002 275.795 275.305 310.491 232.505 310.491C189.705 310.491 155.009 275.795 155.009 232.994V155.498H232.505C275.305 155.498 310.002 190.194 310.002 232.994Z" fill="#E0CFCF"/>
</svg>
