<svg width="50" height="50" viewBox="0 0 50 50" fill="none" xmlns="http://www.w3.org/2000/svg">
<g clip-path="url(#clip0_1854_1467)">
<path d="M0.185547 12.5914C0.185547 5.73961 5.7401 0.185059 12.5919 0.185059C19.4437 0.185059 24.9982 5.73961 24.9982 12.5914V24.9976H12.5919C5.7401 24.9976 0.185547 19.4432 0.185547 12.5914Z" fill="#C5BFAD"/>
<path d="M0.185547 37.406C0.185547 44.2578 5.7401 49.8123 12.5919 49.8123C19.4437 49.8123 24.9982 44.2578 24.9982 37.406V24.9998H12.5919C5.7401 24.9998 0.185547 30.5542 0.185547 37.406Z" fill="#C5BFAD"/>
<path d="M49.8125 12.5914C49.8125 5.73961 44.2581 0.185059 37.4063 0.185059C30.5545 0.185059 25 5.73961 25 12.5914V24.9976H37.4063C44.2581 24.9976 49.8125 19.4432 49.8125 12.5914Z" fill="#C5BFAD"/>
<path d="M49.8125 37.406C49.8125 44.2578 44.2581 49.8123 37.4063 49.8123C30.5545 49.8123 25 44.2578 25 37.406V24.9998H37.4063C44.2581 24.9998 49.8125 30.5542 49.8125 37.406Z" fill="#C5BFAD"/>
<path d="M23.2913 35.5221H12.2139V32.7528H14.9833V16.829H12.2139V14.0596H23.2913C24.5318 14.0596 25.703 14.1981 26.8049 14.475C27.9069 14.7461 28.8819 15.127 29.7301 15.6173C30.5839 16.102 31.3484 16.679 32.0234 17.3482C32.7042 18.0175 33.2639 18.7502 33.7024 19.5464C34.1466 20.3426 34.4842 21.1849 34.7149 22.0735C34.9457 22.9561 35.0611 23.862 35.0611 24.7908C35.0611 25.7197 34.9457 26.6285 34.7149 27.517C34.4842 28.3996 34.1466 29.2391 33.7024 30.0353C33.2639 30.8315 32.7042 31.5643 32.0234 32.2335C31.3484 32.9028 30.5839 33.4826 29.7301 33.973C28.8819 34.4576 27.9069 34.8384 26.8049 35.1154C25.703 35.3865 24.5318 35.5221 23.2913 35.5221ZM23.2913 32.7528C24.1913 32.7528 24.9962 32.5537 25.7059 32.1556C26.4155 31.7517 26.9954 31.1921 27.4454 30.4767C27.9011 29.7613 28.2445 28.9247 28.4752 27.967C28.7118 27.0035 28.8301 25.9448 28.8301 24.7908C28.8301 23.8677 28.7608 23.0081 28.6223 22.2119C28.4839 21.4157 28.2675 20.6858 27.9733 20.0224C27.679 19.3531 27.3155 18.7848 26.8828 18.3175C26.4559 17.8444 25.9366 17.478 25.3251 17.2184C24.7135 16.9587 24.0356 16.829 23.2913 16.829H20.5219V32.7528H23.2913ZM36.7313 34.8904C36.1948 34.348 35.9265 33.6932 35.9265 32.9258C35.9265 32.1585 36.1948 31.5066 36.7313 30.97C37.2737 30.4276 37.9285 30.1565 38.6959 30.1565C39.4632 30.1565 40.1151 30.4276 40.6517 30.97C41.194 31.5066 41.4652 32.1585 41.4652 32.9258C41.4652 33.6932 41.194 34.348 40.6517 34.8904C40.1151 35.4269 39.4632 35.6952 38.6959 35.6952C37.9285 35.6952 37.2737 35.4269 36.7313 34.8904Z" fill="#F8F8F8"/>
</g>
<defs>
<clipPath id="clip0_1854_1467">
<rect width="50" height="50" fill="white"/>
</clipPath>
</defs>
</svg>
