<svg width="81" height="80" viewBox="0 0 81 80" fill="none" xmlns="http://www.w3.org/2000/svg">
<path d="M40.334 6.66797V60.0013M40.334 60.0013V73.3346M40.334 60.0013L50.334 70.0013M40.334 60.0013L30.334 70.0013M50.334 10.0013L40.334 20.0013L30.334 10.0013" stroke="#49D7EA" stroke-width="5" stroke-linecap="round"/>
<path opacity="0.5" d="M11.4629 23.3356L23.0096 30.0023M23.0096 30.0023L40.3296 40.0023M23.0096 30.0023L19.3496 16.3423M23.0096 30.0023L9.34961 33.6623M40.3296 40.0023L57.6496 50.0023M40.3296 40.0023L57.6496 30.0023M40.3296 40.0023L23.0096 50.0023M57.6496 50.0023L69.1963 56.669M57.6496 50.0023L71.3096 46.3423M57.6496 50.0023L61.3096 63.6656M57.6496 30.0023L69.1963 23.3356M57.6496 30.0023L61.3096 16.3423M57.6496 30.0023L71.3096 33.6623M23.0096 50.0023L11.4629 56.669M23.0096 50.0023L9.34961 46.3423M23.0096 50.0023L19.3496 63.669" stroke="#49D7EA" stroke-width="5" stroke-linecap="round"/>
</svg>
