<svg width="81" height="80" viewBox="0 0 81 80" fill="none" xmlns="http://www.w3.org/2000/svg">
<path opacity="0.5" d="M72.08 40.0001H8.58667C8.3783 40.0001 8.17198 39.959 7.97948 39.8793C7.78697 39.7996 7.61206 39.6827 7.46472 39.5354C7.31739 39.388 7.20052 39.2131 7.12078 39.0206C7.04104 38.8281 7 38.6218 7 38.4134C7 29.9937 10.3447 21.9188 16.2984 15.9651C22.252 10.0115 30.3269 6.66675 38.7467 6.66675H41.92C46.089 6.66675 50.2172 7.4879 54.0689 9.08332C57.9206 10.6787 61.4203 13.0172 64.3683 15.9651C67.3162 18.9131 69.6547 22.4128 71.2501 26.2645C72.8455 30.1162 73.6667 34.2444 73.6667 38.4134C73.6667 38.6218 73.6256 38.8281 73.5459 39.0206C73.4662 39.2131 73.3493 39.388 73.2019 39.5354C73.0546 39.6827 72.8797 39.7996 72.6872 39.8793C72.4947 39.959 72.2884 40.0001 72.08 40.0001Z" fill="#9894E6"/>
<path fill-rule="evenodd" clip-rule="evenodd" d="M37.8333 66.6667V40H42.8333V66.6667C42.8333 69.0978 41.8676 71.4294 40.1485 73.1485C38.4294 74.8676 36.0978 75.8333 33.6667 75.8333C31.2355 75.8333 28.9039 74.8676 27.1849 73.1485C25.4658 71.4294 24.5 69.0978 24.5 66.6667V63.3333C24.5 62.6703 24.7634 62.0344 25.2322 61.5656C25.7011 61.0967 26.337 60.8333 27 60.8333C27.663 60.8333 28.2989 61.0967 28.7678 61.5656C29.2366 62.0344 29.5 62.6703 29.5 63.3333V66.6667C29.5 67.7717 29.939 68.8315 30.7204 69.6129C31.5018 70.3944 32.5616 70.8333 33.6667 70.8333C34.7717 70.8333 35.8315 70.3944 36.6129 69.6129C37.3943 68.8315 37.8333 67.7717 37.8333 66.6667Z" fill="#4E3F2B"/>
<path d="M26.4681 40.0001C26.9447 35.4867 28.0581 27.5568 30.4147 20.7634C31.6147 17.2901 33.0881 14.2934 34.8281 12.2067C36.5414 10.1534 38.3447 9.16675 40.3347 9.16675C42.3281 9.16675 44.1314 10.1534 45.8414 12.2067C47.5847 14.2934 49.0547 17.2901 50.2581 20.7634C52.6147 27.5568 53.7247 35.4867 54.2014 40.0001H59.2314L59.2047 39.7434C58.7314 35.1734 57.5747 26.6101 54.9814 19.1267C53.6881 15.3934 51.9781 11.7534 49.6814 9.00342C49.1628 8.37751 48.599 7.79039 47.9947 7.24675C45.9934 6.86043 43.9597 6.66622 41.9214 6.66675H38.7481C36.6703 6.67119 34.6481 6.86453 32.6814 7.24675C32.0748 7.79015 31.5088 8.37728 30.9881 9.00342C28.6947 11.7534 26.9847 15.3934 25.6881 19.1267C23.0947 26.6067 21.9381 35.1734 21.4681 39.7434L21.4414 40.0001H26.4681Z" fill="#9894E6"/>
</svg>
