<svg width="81" height="80" viewBox="0 0 81 80" fill="none" xmlns="http://www.w3.org/2000/svg">
<path d="M39.0013 26.6667C39.0013 29.7609 37.7721 32.7283 35.5842 34.9162C33.3963 37.1042 30.4288 38.3333 27.3346 38.3333C24.2404 38.3333 21.273 37.1042 19.0851 34.9162C16.8971 32.7283 15.668 29.7609 15.668 26.6667C15.668 23.5725 16.8971 20.605 19.0851 18.4171C21.273 16.2292 24.2404 15 27.3346 15C30.4288 15 33.3963 16.2292 35.5842 18.4171C37.7721 20.605 39.0013 23.5725 39.0013 26.6667Z" fill="#F5751E"/>
<path fill-rule="evenodd" clip-rule="evenodd" d="M25.6673 4.16675C26.3304 4.16675 26.9662 4.43014 27.4351 4.89898C27.9039 5.36782 28.1673 6.00371 28.1673 6.66675V8.33341C28.1673 8.99646 27.9039 9.63234 27.4351 10.1012C26.9662 10.57 26.3304 10.8334 25.6673 10.8334C25.0043 10.8334 24.3684 10.57 23.8995 10.1012C23.4307 9.63234 23.1673 8.99646 23.1673 8.33341V6.66675C23.1673 6.00371 23.4307 5.36782 23.8995 4.89898C24.3684 4.43014 25.0043 4.16675 25.6673 4.16675ZM10.934 10.2667C11.1662 10.0339 11.4421 9.84922 11.7458 9.72319C12.0495 9.59715 12.3751 9.53228 12.704 9.53228C13.0328 9.53228 13.3584 9.59715 13.6622 9.72319C13.9659 9.84922 14.2418 10.0339 14.474 10.2667L15.194 10.9901C15.6492 11.4618 15.9009 12.0934 15.8949 12.7489C15.8888 13.4044 15.6256 14.0313 15.1619 14.4946C14.6981 14.9579 14.071 15.2206 13.4155 15.2259C12.76 15.2313 12.1286 14.979 11.6573 14.5234L10.9373 13.8034C10.4691 13.3347 10.2062 12.6993 10.2062 12.0367C10.2062 11.3742 10.4691 10.7388 10.9373 10.2701M40.4007 10.2701C40.633 10.5022 40.8173 10.7779 40.943 11.0813C41.0687 11.3848 41.1334 11.71 41.1334 12.0384C41.1334 12.3669 41.0687 12.6921 40.943 12.9955C40.8173 13.2989 40.633 13.5746 40.4007 13.8067L39.6807 14.5267C39.4518 14.7724 39.1758 14.9694 38.8691 15.106C38.5624 15.2427 38.2314 15.3161 37.8957 15.3221C37.5601 15.328 37.2266 15.2662 36.9153 15.1405C36.604 15.0148 36.3213 14.8276 36.0839 14.5902C35.8465 14.3528 35.6593 14.07 35.5336 13.7587C35.4078 13.4474 35.3461 13.114 35.352 12.7783C35.3579 12.4427 35.4314 12.1116 35.568 11.805C35.7047 11.4983 35.9017 11.2223 36.1473 10.9934L36.864 10.2734C37.0962 10.0411 37.3718 9.85681 37.6752 9.73107C37.9787 9.60533 38.3039 9.54062 38.6323 9.54062C38.9608 9.54062 39.286 9.60533 39.5894 9.73107C39.8928 9.85681 40.1685 10.0378 40.4007 10.2701ZM4.83398 25.0001C4.83398 24.337 5.09738 23.7012 5.56622 23.2323C6.03506 22.7635 6.67094 22.5001 7.33398 22.5001H9.00065C9.66369 22.5001 10.2996 22.7635 10.7684 23.2323C11.2373 23.7012 11.5007 24.337 11.5007 25.0001C11.5007 25.6631 11.2373 26.299 10.7684 26.7678C10.2996 27.2367 9.66369 27.5001 9.00065 27.5001H7.33398C6.67094 27.5001 6.03506 27.2367 5.56622 26.7678C5.09738 26.299 4.83398 25.6631 4.83398 25.0001ZM15.194 35.4767C15.6622 35.9455 15.9251 36.5809 15.9251 37.2434C15.9251 37.9059 15.6622 38.5413 15.194 39.0101L14.474 39.7301C14.0027 40.1857 13.3713 40.438 12.7158 40.4326C12.0603 40.4272 11.4332 40.1646 10.9694 39.7013C10.5057 39.238 10.2425 38.6111 10.2365 37.9556C10.2304 37.3001 10.4821 36.6685 10.9373 36.1967L11.6573 35.4767C12.1261 35.0086 12.7615 34.7456 13.424 34.7456C14.0865 34.7456 14.7252 35.0086 15.194 35.4767Z" fill="#F5751E"/>
<path d="M54.954 73.3333C65.474 73.3333 74.0007 64.9067 74.0007 54.51C74.0007 46.27 68.644 39.2667 61.184 36.7167C60.124 27.3133 52.0507 20 42.254 20C31.734 20 23.2073 28.4267 23.2073 38.8233C23.2073 41.1233 23.624 43.3233 24.3873 45.3633C23.4756 45.1871 22.5492 45.0978 21.6207 45.0967C13.7307 45.1 7.33398 51.42 7.33398 59.2167C7.33398 67.0133 13.7307 73.3333 21.6207 73.3333H54.954Z" fill="#E0ECED"/>
</svg>
