<svg width="80" height="80" viewBox="0 0 80 80" fill="none" xmlns="http://www.w3.org/2000/svg">
<path d="M60 40C60 45.3043 57.8929 50.3914 54.1421 54.1421C50.3914 57.8929 45.3043 60 40 60C34.6957 60 29.6086 57.8929 25.8579 54.1421C22.1071 50.3914 20 45.3043 20 40C20 34.6957 22.1071 29.6086 25.8579 25.8579C29.6086 22.1071 34.6957 20 40 20C45.3043 20 50.3914 22.1071 54.1421 25.8579C57.8929 29.6086 60 34.6957 60 40Z" fill="#F5751E"/>
<path fill-rule="evenodd" clip-rule="evenodd" d="M40.0013 4.16675C40.6643 4.16675 41.3002 4.43014 41.7691 4.89898C42.2379 5.36782 42.5013 6.00371 42.5013 6.66675V10.0001C42.5013 10.6631 42.2379 11.299 41.7691 11.7678C41.3002 12.2367 40.6643 12.5001 40.0013 12.5001C39.3383 12.5001 38.7024 12.2367 38.2335 11.7678C37.7647 11.299 37.5013 10.6631 37.5013 10.0001V6.66675C37.5013 6.00371 37.7647 5.36782 38.2335 4.89898C38.7024 4.43014 39.3383 4.16675 40.0013 4.16675ZM4.16797 40.0001C4.16797 39.337 4.43136 38.7012 4.9002 38.2323C5.36904 37.7635 6.00493 37.5001 6.66797 37.5001H10.0013C10.6643 37.5001 11.3002 37.7635 11.7691 38.2323C12.2379 38.7012 12.5013 39.337 12.5013 40.0001C12.5013 40.6631 12.2379 41.299 11.7691 41.7678C11.3002 42.2367 10.6643 42.5001 10.0013 42.5001H6.66797C6.00493 42.5001 5.36904 42.2367 4.9002 41.7678C4.43136 41.299 4.16797 40.6631 4.16797 40.0001ZM67.5013 40.0001C67.5013 39.337 67.7647 38.7012 68.2335 38.2323C68.7024 37.7635 69.3383 37.5001 70.0013 37.5001H73.3346C73.9977 37.5001 74.6336 37.7635 75.1024 38.2323C75.5713 38.7012 75.8346 39.337 75.8346 40.0001C75.8346 40.6631 75.5713 41.299 75.1024 41.7678C74.6336 42.2367 73.9977 42.5001 73.3346 42.5001H70.0013C69.3383 42.5001 68.7024 42.2367 68.2335 41.7678C67.7647 41.299 67.5013 40.6631 67.5013 40.0001ZM40.0013 67.5001C40.6643 67.5001 41.3002 67.7635 41.7691 68.2323C42.2379 68.7012 42.5013 69.337 42.5013 70.0001V73.3334C42.5013 73.9965 42.2379 74.6323 41.7691 75.1012C41.3002 75.57 40.6643 75.8334 40.0013 75.8334C39.3383 75.8334 38.7024 75.57 38.2335 75.1012C37.7647 74.6323 37.5013 73.9965 37.5013 73.3334V70.0001C37.5013 69.337 37.7647 68.7012 38.2335 68.2323C38.7024 67.7635 39.3383 67.5001 40.0013 67.5001Z" fill="#F5751E"/>
<path opacity="0.5" d="M14.6615 14.6586C14.8937 14.4263 15.1693 14.242 15.4728 14.1162C15.7762 13.9905 16.1014 13.9258 16.4298 13.9258C16.7583 13.9258 17.0835 13.9905 17.3869 14.1162C17.6903 14.242 17.966 14.4263 18.1982 14.6586L19.5082 15.9686C19.9498 16.4425 20.1902 17.0693 20.1788 17.717C20.1673 18.3647 19.905 18.9826 19.4469 19.4407C18.9889 19.8987 18.3709 20.1611 17.7232 20.1725C17.0756 20.1839 16.4488 19.9435 15.9748 19.5019L14.6615 18.1952C14.1933 17.7265 13.9304 17.0911 13.9304 16.4286C13.9304 15.7661 14.1933 15.1307 14.6615 14.6619M65.3348 14.6619C65.803 15.1307 66.066 15.7661 66.066 16.4286C66.066 17.0911 65.803 17.7265 65.3348 18.1952L64.0282 19.5052C63.5543 19.9468 62.9274 20.1873 62.2798 20.1758C61.6321 20.1644 61.0141 19.902 60.5561 19.444C60.098 18.9859 59.8357 18.368 59.8242 17.7203C59.8128 17.0727 60.0532 16.4458 60.4948 15.9719L61.8015 14.6619C62.2703 14.1937 62.9057 13.9308 63.5682 13.9308C64.2307 13.9308 64.8661 14.1937 65.3348 14.6619ZM60.4915 60.4886C60.7237 60.2563 60.9993 60.072 61.3028 59.9462C61.6062 59.8205 61.9314 59.7558 62.2598 59.7558C62.5883 59.7558 62.9135 59.8205 63.2169 59.9462C63.5203 60.072 63.796 60.2563 64.0282 60.4886L65.3382 61.7986C65.7798 62.2725 66.0202 62.8993 66.0088 63.547C65.9973 64.1947 65.735 64.8126 65.2769 65.2707C64.8189 65.7287 64.2009 65.9911 63.5532 66.0025C62.9056 66.0139 62.2788 65.7735 61.8048 65.3319L60.4915 64.0252C60.0233 63.5565 59.7604 62.9211 59.7604 62.2586C59.7604 61.5961 60.0233 60.9607 60.4915 60.4919M19.5082 60.4919C19.9763 60.9607 20.2393 61.5961 20.2393 62.2586C20.2393 62.9211 19.9763 63.5565 19.5082 64.0252L18.1982 65.3352C17.9693 65.5809 17.6933 65.7779 17.3866 65.9145C17.08 66.0512 16.7489 66.1246 16.4132 66.1306C16.0776 66.1365 15.7441 66.0747 15.4328 65.949C15.1215 65.8232 14.8388 65.6361 14.6014 65.3987C14.364 65.1613 14.1768 64.8785 14.0511 64.5672C13.9254 64.2559 13.8636 63.9225 13.8695 63.5868C13.8755 63.2512 13.9489 62.9201 14.0856 62.6135C14.2222 62.3068 14.4192 62.0308 14.6648 61.8019L15.9715 60.4919C16.4403 60.0238 17.0757 59.7608 17.7382 59.7608C18.4007 59.7608 19.0361 60.0238 19.5048 60.4919" fill="#F5751E"/>
</svg>
