<svg width="240" height="240" viewBox="0 0 240 240" fill="none" xmlns="http://www.w3.org/2000/svg">
  <!-- 캘린더 배경 -->
  <rect x="40" y="40" width="160" height="160" rx="8" fill="white" stroke="#CCCCCC" stroke-width="2"/>
  
  <!-- 캘린더 헤더 -->
  <rect x="40" y="40" width="160" height="40" rx="8" fill="#E74C3C"/>
  
  <!-- 캘린더 링 -->
  <circle cx="70" cy="40" r="5" fill="#333333"/>
  <circle cx="120" cy="40" r="5" fill="#333333"/>
  <circle cx="170" cy="40" r="5" fill="#333333"/>
  
  <!-- 캘린더 날짜 -->
  <text x="60" y="100" font-family="Arial" font-size="12" fill="#333333">1</text>
  <text x="90" y="100" font-family="Arial" font-size="12" fill="#333333">2</text>
  <text x="120" y="100" font-family="Arial" font-size="12" fill="#333333">3</text>
  <text x="150" y="100" font-family="Arial" font-size="12" fill="#333333">4</text>
  <text x="180" y="100" font-family="Arial" font-size="12" fill="#333333">5</text>
  
  <text x="60" y="130" font-family="Arial" font-size="12" fill="#333333">6</text>
  <text x="90" y="130" font-family="Arial" font-size="12" fill="#333333">7</text>
  <text x="120" y="130" font-family="Arial" font-size="12" fill="#333333">8</text>
  <text x="150" y="130" font-family="Arial" font-size="12" fill="#333333">9</text>
  <text x="180" y="130" font-family="Arial" font-size="12" fill="#333333">10</text>
  
  <text x="60" y="160" font-family="Arial" font-size="12" fill="#333333">11</text>
  <text x="90" y="160" font-family="Arial" font-size="12" fill="#333333">12</text>
  <text x="120" y="160" font-family="Arial" font-size="12" fill="#333333">13</text>
  <text x="150" y="160" font-family="Arial" font-size="12" fill="#333333">14</text>
  <text x="180" y="160" font-family="Arial" font-size="12" fill="#333333">15</text>
  
  <!-- 캘린더 페이지 넘김 효과 -->
  <path d="M200 160 L200 200 L40 200 L40 160 C40 160, 80 180, 120 160 C160 140, 200 160, 200 160 Z" fill="white" stroke="#CCCCCC" stroke-width="1"/>
</svg> 