<svg width="180" height="180" viewBox="0 0 180 180" fill="none" xmlns="http://www.w3.org/2000/svg">
<g id="dearfam_logo_icon" opacity="0.6">
<path id="Vector" d="M0.666016 45.3292C0.666016 20.6629 20.6624 0.666504 45.3289 0.666504C69.9953 0.666504 89.9914 20.6629 89.9914 45.3292V89.9918H45.3289C20.6624 89.9918 0.666016 69.9957 0.666016 45.3292Z" fill="#F28C46"/>
<path id="Vector_2" d="M0.667969 134.661C0.667969 159.328 20.6644 179.324 45.3308 179.324C69.9973 179.324 89.9934 159.328 89.9934 134.661V89.9985H45.3308C20.6644 89.9985 0.667969 109.995 0.667969 134.661Z" fill="#9894E6"/>
<path id="Vector_3" d="M179.325 45.3292C179.325 20.6629 159.329 0.666504 134.663 0.666504C109.996 0.666504 90 20.6629 90 45.3292V89.9918H134.663C159.329 89.9918 179.325 69.9957 179.325 45.3292Z" fill="#689F72"/>
<path id="Vector_4" d="M179.325 134.661C179.325 159.328 159.329 179.324 134.663 179.324C109.996 179.324 90 159.328 90 134.661V89.9985H134.663C159.329 89.9985 179.325 109.995 179.325 134.661Z" fill="#C26A6A"/>
<path id="Vector_5" d="M83.8515 127.88H43.9727V117.91H53.9425V60.5846H43.9727V50.6147H83.8515C88.3171 50.6147 92.5334 51.1134 96.5004 52.1104C100.468 53.0864 103.978 54.4573 107.031 56.2227C110.105 57.9676 112.857 60.0446 115.287 62.4539C117.738 64.8632 119.753 67.5009 121.331 70.3672C122.931 73.2335 124.146 76.2661 124.976 79.4647C125.807 82.6424 126.223 85.9033 126.223 89.2473C126.223 92.5913 125.807 95.8627 124.976 99.0613C124.146 102.239 122.931 105.261 121.331 108.127C119.753 110.994 117.738 113.632 115.287 116.041C112.857 118.45 110.105 120.538 107.031 122.303C103.978 124.048 100.468 125.419 96.5004 126.416C92.5334 127.392 88.3171 127.88 83.8515 127.88ZM83.8515 117.91C87.0915 117.91 89.989 117.194 92.5439 115.761C95.0986 114.307 97.186 112.292 98.806 109.716C100.447 107.141 101.683 104.129 102.513 100.681C103.365 97.2127 103.791 93.4016 103.791 89.2473C103.791 85.924 103.542 82.8294 103.043 79.9631C102.545 77.0968 101.766 74.4693 100.707 72.081C99.6472 69.6714 98.3386 67.6256 96.7809 65.9432C95.2439 64.2402 93.3746 62.9211 91.173 61.9864C88.9713 61.0518 86.5308 60.5846 83.8515 60.5846H73.8817V117.91H83.8515ZM132.236 125.606C130.304 123.653 129.338 121.296 129.338 118.533C129.338 115.771 130.304 113.424 132.236 111.492C134.188 109.54 136.545 108.564 139.308 108.564C142.07 108.564 144.417 109.54 146.349 111.492C148.301 113.424 149.277 115.771 149.277 118.533C149.277 121.296 148.301 123.653 146.349 125.606C144.417 127.537 142.07 128.503 139.308 128.503C136.545 128.503 134.188 127.537 132.236 125.606Z" fill="white"/>
</g>
</svg>
