<svg width="150" height="150" viewBox="0 0 150 150" fill="none" xmlns="http://www.w3.org/2000/svg">
<g clip-path="url(#clip0_846_2629)">
<path d="M0.555176 37.7741C0.555176 17.2188 17.2188 0.555176 37.7742 0.555176C58.3296 0.555176 74.993 17.2188 74.993 37.7741V74.9929H37.7742C17.2188 74.9929 0.555176 58.3295 0.555176 37.7741Z" fill="#F28C46"/>
<path d="M0.556641 112.218C0.556641 132.773 17.2203 149.437 37.7757 149.437C58.3311 149.437 74.9945 132.773 74.9945 112.218V74.999H37.7757C17.2203 74.999 0.556641 91.6625 0.556641 112.218Z" fill="#9894E6"/>
<path d="M149.438 37.7741C149.438 17.2188 132.774 0.555176 112.219 0.555176C91.6634 0.555176 75 17.2188 75 37.7741V74.9929H112.219C132.774 74.9929 149.438 58.3295 149.438 37.7741Z" fill="#689F72"/>
<path d="M149.438 112.218C149.438 132.773 132.774 149.437 112.219 149.437C91.6634 149.437 75 132.773 75 112.218V74.999H112.219C132.774 74.999 149.438 91.6625 149.438 112.218Z" fill="#C26A6A"/>
<path d="M69.8764 106.566H36.644V98.2583H44.9522V50.4869H36.644V42.1787H69.8764C73.5978 42.1787 77.1114 42.5942 80.4172 43.4251C83.7232 44.2384 86.6482 45.3809 89.1926 46.852C91.7543 48.3061 94.0477 50.0369 96.0727 52.0447C98.1152 54.0524 99.794 56.2505 101.11 58.6391C102.442 61.0277 103.455 63.5548 104.147 66.2204C104.839 68.8684 105.186 71.5859 105.186 74.3725C105.186 77.1592 104.839 79.8854 104.147 82.5509C103.455 85.1989 102.442 87.7174 101.11 90.1059C99.794 92.4945 98.1152 94.6928 96.0727 96.7006C94.0477 98.7083 91.7543 100.448 89.1926 101.919C86.6482 103.373 83.7232 104.515 80.4172 105.346C77.1114 106.16 73.5978 106.566 69.8764 106.566ZM69.8764 98.2583C72.5764 98.2583 74.991 97.661 77.1201 96.4668C79.249 95.2552 80.9885 93.5763 82.3385 91.43C83.7058 89.2839 84.7358 86.7742 85.4281 83.9009C86.1378 81.0104 86.4926 77.8344 86.4926 74.3725C86.4926 71.6031 86.2849 69.0242 85.8693 66.6357C85.454 64.2471 84.805 62.0575 83.9223 60.0672C83.0395 58.0592 81.949 56.3544 80.6509 54.9524C79.3701 53.5333 77.8123 52.434 75.9776 51.6551C74.1429 50.8762 72.1092 50.4869 69.8764 50.4869H61.5682V98.2583H69.8764ZM110.196 104.671C108.587 103.044 107.782 101.079 107.782 98.7775C107.782 96.4756 108.587 94.5198 110.196 92.9101C111.824 91.2829 113.788 90.4695 116.09 90.4695C118.392 90.4695 120.348 91.2829 121.958 92.9101C123.584 94.5198 124.398 96.4756 124.398 98.7775C124.398 101.079 123.584 103.044 121.958 104.671C120.348 106.281 118.392 107.086 116.09 107.086C113.788 107.086 111.824 106.281 110.196 104.671Z" fill="white"/>
</g>
<defs>
<clipPath id="clip0_846_2629">
<rect width="150" height="150" fill="white"/>
</clipPath>
</defs>
</svg>
