<svg width="160" height="26" viewBox="0 0 160 26" fill="none" xmlns="http://www.w3.org/2000/svg">
<g clip-path="url(#clip0_657_11400)">
<path d="M12.6719 25H0.171875V21.875H3.29688V3.90625H0.171875V0.78125H12.6719C14.0716 0.78125 15.3932 0.9375 16.6367 1.25C17.8802 1.55599 18.9805 1.98568 19.9375 2.53906C20.901 3.08594 21.7637 3.73698 22.5254 4.49219C23.2936 5.2474 23.9251 6.07422 24.4199 6.97266C24.9212 7.87109 25.3021 8.82161 25.5625 9.82422C25.8229 10.8203 25.9531 11.8424 25.9531 12.8906C25.9531 13.9388 25.8229 14.9642 25.5625 15.9668C25.3021 16.9629 24.9212 17.9102 24.4199 18.8086C23.9251 19.707 23.2936 20.5339 22.5254 21.2891C21.7637 22.0443 20.901 22.6986 19.9375 23.252C18.9805 23.7988 17.8802 24.2285 16.6367 24.541C15.3932 24.847 14.0716 25 12.6719 25ZM12.6719 21.875C13.6875 21.875 14.5957 21.6504 15.3965 21.2012C16.1973 20.7454 16.8516 20.1139 17.3594 19.3066C17.8737 18.4993 18.2611 17.5553 18.5215 16.4746C18.7884 15.3874 18.9219 14.1927 18.9219 12.8906C18.9219 11.849 18.8438 10.8789 18.6875 9.98047C18.5312 9.08203 18.2871 8.25846 17.9551 7.50977C17.623 6.75456 17.2129 6.11328 16.7246 5.58594C16.2428 5.05208 15.6569 4.63867 14.9668 4.3457C14.2767 4.05273 13.5117 3.90625 12.6719 3.90625H9.54688V21.875H12.6719ZM33.7461 17.1875C33.8047 17.9427 33.9284 18.6165 34.1172 19.209C34.306 19.8014 34.5339 20.2865 34.8008 20.6641C35.0742 21.0417 35.39 21.3542 35.748 21.6016C36.1061 21.8424 36.474 22.015 36.8516 22.1191C37.2292 22.2168 37.6328 22.2656 38.0625 22.2656C39.4362 22.2656 40.5072 22.002 41.2754 21.4746C42.0501 20.9408 42.6686 20.1204 43.1309 19.0137L45.7285 19.9121C45.4941 20.5436 45.1947 21.1393 44.8301 21.6992C44.472 22.2526 44.0391 22.7637 43.5312 23.2324C43.0234 23.7012 42.457 24.1048 41.832 24.4434C41.2135 24.7754 40.5137 25.0358 39.7324 25.2246C38.9512 25.4134 38.1276 25.5078 37.2617 25.5078C35.9792 25.5078 34.765 25.2832 33.6191 24.834C32.4798 24.3848 31.487 23.7598 30.6406 22.959C29.8008 22.1517 29.1335 21.1589 28.6387 19.9805C28.1504 18.8021 27.9062 17.5195 27.9062 16.1328C27.9062 14.7461 28.1504 13.457 28.6387 12.2656C29.1335 11.0742 29.8008 10.0716 30.6406 9.25781C31.487 8.4375 32.4798 7.79622 33.6191 7.33398C34.765 6.87174 35.9792 6.64062 37.2617 6.64062C38.5443 6.64062 39.7552 6.87174 40.8945 7.33398C42.0404 7.79622 43.0332 8.4375 43.873 9.25781C44.7194 10.0716 45.3867 11.0742 45.875 12.2656C46.3698 13.457 46.6172 14.7461 46.6172 16.1328L46.373 17.1875H33.7461ZM33.8145 14.0625H40.709C40.5397 12.5651 40.1654 11.4746 39.5859 10.791C39.0065 10.1074 38.2383 9.76562 37.2812 9.76562C36.806 9.76562 36.3796 9.84375 36.002 10C35.6243 10.1497 35.2858 10.3939 34.9863 10.7324C34.6868 11.0645 34.4362 11.5104 34.2344 12.0703C34.0391 12.6237 33.8991 13.2878 33.8145 14.0625ZM64.9766 13.2324V21.875H66.9297V25H60.8457L59.9766 22.9688C59.3125 23.9193 58.541 24.5703 57.6621 24.9219C56.7897 25.2734 55.569 25.4492 54 25.4492C53.1862 25.4492 52.4277 25.306 51.7246 25.0195C51.028 24.7396 50.4323 24.3555 49.9375 23.8672C49.4492 23.3789 49.0651 22.793 48.7852 22.1094C48.5117 21.4258 48.375 20.6934 48.375 19.9121C48.375 18.5645 48.9023 17.4479 49.957 16.5625C51.0117 15.6706 52.3594 15.2246 54 15.2246C55.3216 15.2246 56.4154 15.3516 57.2812 15.6055C58.1471 15.8529 58.8893 16.25 59.5078 16.7969V12.6562C59.5078 12.0703 59.4264 11.582 59.2637 11.1914C59.1074 10.7943 58.8698 10.4915 58.5508 10.2832C58.2318 10.0684 57.8737 9.91862 57.4766 9.83398C57.0794 9.74935 56.6042 9.70703 56.0508 9.70703C55.6081 9.70703 55.2077 9.80143 54.8496 9.99023C55.0514 10.4134 55.1523 10.8594 55.1523 11.3281C55.1523 12.194 54.8464 12.9329 54.2344 13.5449C53.6289 14.1504 52.8932 14.4531 52.0273 14.4531C51.1615 14.4531 50.4225 14.1504 49.8105 13.5449C49.2051 12.9329 48.9023 12.194 48.9023 11.3281C48.9023 10.8854 48.987 10.4688 49.1562 10.0781C49.332 9.6875 49.5729 9.3457 49.8789 9.05273C50.1393 8.7793 50.4095 8.53516 50.6895 8.32031C50.9694 8.09896 51.321 7.88086 51.7441 7.66602C52.1738 7.44466 52.6393 7.26237 53.1406 7.11914C53.6419 6.97591 54.2409 6.86198 54.9375 6.77734C55.6406 6.6862 56.4089 6.64062 57.2422 6.64062C58.3229 6.64062 59.3385 6.80013 60.2891 7.11914C61.2396 7.43815 62.0599 7.88086 62.75 8.44727C63.4401 9.01367 63.9837 9.71029 64.3809 10.5371C64.778 11.3639 64.9766 12.2624 64.9766 13.2324ZM59.5078 20.6641V19.3164C59.1042 18.9323 58.6484 18.61 58.1406 18.3496C57.6393 18.0827 57.1738 17.9492 56.7441 17.9492C55.8197 17.9492 55.1686 18.1055 54.791 18.418C54.4134 18.724 54.2246 19.222 54.2246 19.9121C54.2246 20.7389 54.3874 21.3477 54.7129 21.7383C55.0384 22.1289 55.6439 22.3242 56.5293 22.3242C57.0306 22.3242 57.5514 22.1647 58.0918 21.8457C58.6387 21.5202 59.1107 21.1263 59.5078 20.6641ZM68.6875 7.03125H74.752L75.9824 9.4043C77.1348 7.56185 78.7656 6.64062 80.875 6.64062C82.2878 6.64062 83.4076 7.07682 84.2344 7.94922C85.0677 8.8151 85.4844 9.94141 85.4844 11.3281C85.4844 12.194 85.1784 12.9329 84.5664 13.5449C83.9609 14.1504 83.2253 14.4531 82.3594 14.4531C81.4935 14.4531 80.7546 14.1504 80.1426 13.5449C79.5371 12.9329 79.2344 12.194 79.2344 11.3281C79.2344 10.9766 79.2897 10.638 79.4004 10.3125C79.2246 10.2083 79.0391 10.1562 78.8438 10.1562C78.4076 10.1562 77.9551 10.4427 77.4863 11.0156C77.0241 11.582 76.5781 12.4316 76.1484 13.5645L76.1094 21.875H80.4062V25H68.6875V21.875H70.6406V10.1562H68.6875V7.03125ZM100.328 21.875V25H85.4844V21.875H88.6094V3.90625H85.4844V0.78125H106.578V8.59375H103.062V7.03125C103.062 6.71224 103.033 6.38346 102.975 6.04492C102.923 5.70638 102.838 5.37109 102.721 5.03906C102.61 4.70703 102.447 4.43685 102.232 4.22852C102.018 4.01367 101.773 3.90625 101.5 3.90625H94.8594V12.5H98.375V8.98438H101.5V19.1406H98.375V15.625H94.8594V21.875H100.328ZM123.766 13.2324V21.875H125.719V25H119.635L118.766 22.9688C118.102 23.9193 117.33 24.5703 116.451 24.9219C115.579 25.2734 114.358 25.4492 112.789 25.4492C111.975 25.4492 111.217 25.306 110.514 25.0195C109.817 24.7396 109.221 24.3555 108.727 23.8672C108.238 23.3789 107.854 22.793 107.574 22.1094C107.301 21.4258 107.164 20.6934 107.164 19.9121C107.164 18.5645 107.691 17.4479 108.746 16.5625C109.801 15.6706 111.148 15.2246 112.789 15.2246C114.111 15.2246 115.204 15.3516 116.07 15.6055C116.936 15.8529 117.678 16.25 118.297 16.7969V12.6562C118.297 12.0703 118.215 11.582 118.053 11.1914C117.896 10.7943 117.659 10.4915 117.34 10.2832C117.021 10.0684 116.663 9.91862 116.266 9.83398C115.868 9.74935 115.393 9.70703 114.84 9.70703C114.397 9.70703 113.997 9.80143 113.639 9.99023C113.84 10.4134 113.941 10.8594 113.941 11.3281C113.941 12.194 113.635 12.9329 113.023 13.5449C112.418 14.1504 111.682 14.4531 110.816 14.4531C109.951 14.4531 109.212 14.1504 108.6 13.5449C107.994 12.9329 107.691 12.194 107.691 11.3281C107.691 10.8854 107.776 10.4688 107.945 10.0781C108.121 9.6875 108.362 9.3457 108.668 9.05273C108.928 8.7793 109.199 8.53516 109.479 8.32031C109.758 8.09896 110.11 7.88086 110.533 7.66602C110.963 7.44466 111.428 7.26237 111.93 7.11914C112.431 6.97591 113.03 6.86198 113.727 6.77734C114.43 6.6862 115.198 6.64062 116.031 6.64062C117.112 6.64062 118.128 6.80013 119.078 7.11914C120.029 7.43815 120.849 7.88086 121.539 8.44727C122.229 9.01367 122.773 9.71029 123.17 10.5371C123.567 11.3639 123.766 12.2624 123.766 13.2324ZM118.297 20.6641V19.3164C117.893 18.9323 117.438 18.61 116.93 18.3496C116.428 18.0827 115.963 17.9492 115.533 17.9492C114.609 17.9492 113.958 18.1055 113.58 18.418C113.202 18.724 113.014 19.222 113.014 19.9121C113.014 20.7389 113.176 21.3477 113.502 21.7383C113.827 22.1289 114.433 22.3242 115.318 22.3242C115.82 22.3242 116.34 22.1647 116.881 21.8457C117.428 21.5202 117.9 21.1263 118.297 20.6641ZM151.695 6.64062C152.607 6.64062 153.404 6.76432 154.088 7.01172C154.771 7.25911 155.331 7.60091 155.768 8.03711C156.204 8.4668 156.555 9.01693 156.822 9.6875C157.096 10.3516 157.285 11.0677 157.389 11.8359C157.499 12.5977 157.555 13.4701 157.555 14.4531V21.875H159.508V25H150.133V21.875H152.086V14.0625C152.086 13.0339 151.992 12.2331 151.803 11.6602C151.62 11.0872 151.354 10.6934 151.002 10.4785C150.657 10.2637 150.185 10.1562 149.586 10.1562C149.026 10.1562 148.45 10.4004 147.857 10.8887C147.265 11.377 146.705 12.0605 146.178 12.9395C146.21 13.4082 146.227 13.9128 146.227 14.4531V21.875H148.18V25H138.805V21.875H140.758V14.0625C140.758 13.0339 140.663 12.2331 140.475 11.6602C140.292 11.0872 140.025 10.6934 139.674 10.4785C139.329 10.2637 138.857 10.1562 138.258 10.1562C137.711 10.1562 137.151 10.3874 136.578 10.8496C136.005 11.3118 135.462 11.9564 134.947 12.7832L134.898 21.875H136.852V25H127.477V21.875H129.43V10.1562H127.477V7.03125H133.541L134.908 9.67773C135.149 9.24154 135.426 8.85091 135.738 8.50586C136.057 8.1543 136.435 7.83529 136.871 7.54883C137.314 7.25586 137.831 7.03125 138.424 6.875C139.016 6.71875 139.664 6.64062 140.367 6.64062C141.155 6.64062 141.858 6.73177 142.477 6.91406C143.095 7.08984 143.619 7.35352 144.049 7.70508C144.485 8.05013 144.846 8.46354 145.133 8.94531C145.419 9.42057 145.647 9.97396 145.816 10.6055C145.979 10.1823 146.168 9.78516 146.383 9.41406C146.604 9.04297 146.884 8.6849 147.223 8.33984C147.561 7.98828 147.936 7.69206 148.346 7.45117C148.762 7.20378 149.257 7.00846 149.83 6.86523C150.403 6.71549 151.025 6.64062 151.695 6.64062Z" fill="#9A9893"/>
</g>
<defs>
<clipPath id="clip0_657_11400">
<rect width="160" height="26" fill="white"/>
</clipPath>
</defs>
</svg>
