<svg width="36" height="36" viewBox="0 0 36 36" fill="none" xmlns="http://www.w3.org/2000/svg">
<path fill-rule="evenodd" clip-rule="evenodd" d="M33 13.6667C33 12.998 32.6658 12.3735 32.1094 12.0026L19.1094 3.3359C18.4376 2.88803 17.5624 2.88803 16.8906 3.3359L3.8906 12.0026C3.3342 12.3735 3 12.998 3 13.6667V22.5963V30.5963C3 31.7009 3.89543 32.5963 5 32.5963H13C14.1046 32.5963 15 31.7009 15 30.5963V24.5963C15 23.4917 15.8954 22.5963 17 22.5963H19C20.1046 22.5963 21 23.4917 21 24.5963V30.5963C21 31.7009 21.8954 32.5963 23 32.5963H31C32.1046 32.5963 33 31.7009 33 30.5963V22.5963V13.6667Z" fill="#828282"/>
</svg>
