<svg width="24" height="24" viewBox="0 0 24 24" fill="none" xmlns="http://www.w3.org/2000/svg">
<path d="M7 4.75H4C3.30964 4.75 2.75 5.30964 2.75 6V18C2.75 18.6904 3.30964 19.25 4 19.25H7C7.69036 19.25 8.25 18.6904 8.25 18V6C8.25 5.30964 7.69036 4.75 7 4.75Z" stroke="#9A9893" stroke-width="1.5"/>
<path d="M20 19.25H17C16.3096 19.25 15.75 18.6904 15.75 18V6C15.75 5.30964 16.3096 4.75 17 4.75H20C20.6904 4.75 21.25 5.30964 21.25 6V18C21.25 18.6904 20.6904 19.25 20 19.25Z" stroke="#9A9893" stroke-width="1.5"/>
<path d="M17 2.75H7C6.30964 2.75 5.75 3.30964 5.75 4V20C5.75 20.6904 6.30964 21.25 7 21.25H17C17.6904 21.25 18.25 20.6904 18.25 20V4C18.25 3.30964 17.6904 2.75 17 2.75Z" fill="#E5E1D7" stroke="#9A9893" stroke-width="1.5"/>
</svg>
