<svg width="32" height="32" viewBox="0 0 32 32" fill="none" xmlns="http://www.w3.org/2000/svg">
<path fill-rule="evenodd" clip-rule="evenodd" d="M2 28.163L2.7071 27.4558L27.4559 2.70711L28.163 2L29.5772 3.41421L28.8701 4.12132L27.4155 5.57596V25.1244C27.4155 26.2289 26.52 27.1244 25.4155 27.1244H6.41542C6.25576 27.1244 6.10485 27.087 5.97096 27.0204L4.12132 28.8701L3.41421 29.5772L2 28.163ZM16.6407 16.3507L25.4155 7.57596V18.0209L22.2359 15.1593C21.489 14.4871 20.3594 14.4734 19.5964 15.1274L17.4099 17.0015L16.6407 16.3507ZM15.2216 17.7698L7.867 25.1244H25.4155V20.6821C25.3556 20.6476 25.2985 20.6064 25.2451 20.5583L20.898 16.6459L18.7115 18.52C17.9662 19.1589 16.8674 19.1624 16.118 18.5283L15.2216 17.7698ZM3.41542 5.12437C3.41542 4.01981 4.31085 3.12437 5.41542 3.12437H22.4155H23.4155V5.12437H22.4155H5.41542V16.1578L9.6222 12.5982C10.3679 11.9673 11.4603 11.9673 12.206 12.5982L13.8682 14.0047L12.4491 15.4239L10.9141 14.125L5.41542 18.7777V22.6244V23.6244H3.41542V22.6244V18.3678C3.4136 18.3329 3.41361 18.2981 3.41542 18.2633V5.12437Z" fill="#F8F8F8"/>
</svg>
