<svg width="24" height="24" viewBox="0 0 24 24" fill="none" xmlns="http://www.w3.org/2000/svg">
<path fill-rule="evenodd" clip-rule="evenodd" d="M8.6665 11.8764C11.4265 9.10757 14.1241 6.40597 16.7593 3.77157C16.8972 3.62657 16.9742 3.4341 16.9742 3.23397C16.9742 3.03384 16.8972 2.84137 16.7593 2.69637C16.3861 2.28117 15.7957 2.31717 15.5269 2.60037C12.7957 5.33877 9.9385 8.20077 6.9553 11.1864C6.7185 11.3808 6.6001 11.6104 6.6001 11.8752C6.6001 12.14 6.7185 12.3768 6.9553 12.5856L15.9349 21.3528C16.1073 21.5109 16.3345 21.5958 16.5684 21.5893C16.8022 21.5828 17.0244 21.4855 17.1877 21.318C17.6173 20.8872 17.4517 20.4624 17.2573 20.2608C14.3892 17.4698 11.5252 14.6746 8.6653 11.8752" fill="#9A9893"/>
</svg>
