<svg width="24" height="24" viewBox="0 0 24 24" fill="none" xmlns="http://www.w3.org/2000/svg">
<path d="M9.09091 2.75H4C3.30964 2.75 2.75 3.30964 2.75 4V9.09068C2.75 9.78104 3.30964 10.3407 4 10.3407H9.09091C9.78127 10.3407 10.3409 9.78104 10.3409 9.09068V4C10.3409 3.30964 9.78127 2.75 9.09091 2.75Z" stroke="#9A9893" stroke-width="1.5"/>
<path d="M19.9991 2.75H14.9082C14.2178 2.75 13.6582 3.30964 13.6582 4V9.09068C13.6582 9.78104 14.2178 10.3407 14.9082 10.3407H19.9991C20.6895 10.3407 21.2491 9.78104 21.2491 9.09068V4C21.2491 3.30964 20.6895 2.75 19.9991 2.75Z" stroke="#9A9893" stroke-width="1.5"/>
<path d="M9.09091 13.6582H4C3.30964 13.6582 2.75 14.2178 2.75 14.9082V19.9989C2.75 20.6892 3.30964 21.2489 4 21.2489H9.09091C9.78127 21.2489 10.3409 20.6892 10.3409 19.9989V14.9082C10.3409 14.2178 9.78127 13.6582 9.09091 13.6582Z" stroke="#9A9893" stroke-width="1.5"/>
<path d="M19.9991 13.6582H14.9082C14.2178 13.6582 13.6582 14.2178 13.6582 14.9082V19.9989C13.6582 20.6892 14.2178 21.2489 14.9082 21.2489H19.9991C20.6895 21.2489 21.2491 20.6892 21.2491 19.9989V14.9082C21.2491 14.2178 20.6895 13.6582 19.9991 13.6582Z" stroke="#9A9893" stroke-width="1.5"/>
</svg>
