<svg width="50" height="50" viewBox="0 0 50 50" fill="none" xmlns="http://www.w3.org/2000/svg">
<g clip-path="url(#clip0_2297_1638)">
<path d="M0.185547 12.5914C0.185547 5.73961 5.7401 0.185059 12.5919 0.185059C19.4437 0.185059 24.9982 5.73961 24.9982 12.5914V24.9976H12.5919C5.7401 24.9976 0.185547 19.4432 0.185547 12.5914Z" fill="#C5BFAD"/>
<path d="M0.185547 37.406C0.185547 44.2578 5.7401 49.8123 12.5919 49.8123C19.4437 49.8123 24.9982 44.2578 24.9982 37.406V24.9998H12.5919C5.7401 24.9998 0.185547 30.5542 0.185547 37.406Z" fill="#C5BFAD"/>
<path d="M49.8125 12.5914C49.8125 5.73961 44.2581 0.185059 37.4063 0.185059C30.5545 0.185059 25 5.73961 25 12.5914V24.9976H37.4063C44.2581 24.9976 49.8125 19.4432 49.8125 12.5914Z" fill="#C5BFAD"/>
<path d="M49.8125 37.406C49.8125 44.2578 44.2581 49.8123 37.4063 49.8123C30.5545 49.8123 25 44.2578 25 37.406V24.9998H37.4063C44.2581 24.9998 49.8125 30.5542 49.8125 37.406Z" fill="#C5BFAD"/>
</g>
<defs>
<clipPath id="clip0_2297_1638">
<rect width="50" height="50" fill="white"/>
</clipPath>
</defs>
</svg>
