<svg width="50" height="50" viewBox="0 0 50 50" fill="none" xmlns="http://www.w3.org/2000/svg">
<g clip-path="url(#clip0_1854_1467)">
<path d="M0.185547 12.5914C0.185547 5.73961 5.7401 0.185059 12.5919 0.185059C19.4437 0.185059 24.9982 5.73961 24.9982 12.5914V24.9976H12.5919C5.7401 24.9976 0.185547 19.4432 0.185547 12.5914Z" fill="#C5BFAD"/>
<path d="M0.185547 37.406C0.185547 44.2578 5.7401 49.8123 12.5919 49.8123C19.4437 49.8123 24.9982 44.2578 24.9982 37.406V24.9998H12.5919C5.7401 24.9998 0.185547 30.5542 0.185547 37.406Z" fill="#C5BFAD"/>
<path d="M49.8125 12.5914C49.8125 5.73961 44.2581 0.185059 37.4063 0.185059C30.5545 0.185059 25 5.73961 25 12.5914V24.9976H37.4063C44.2581 24.9976 49.8125 19.4432 49.8125 12.5914Z" fill="#C5BFAD"/>
<path d="M49.8125 37.406C49.8125 44.2578 44.2581 49.8123 37.4063 49.8123C30.5545 49.8123 25 44.2578 25 37.406V24.9998H37.4063C44.2581 24.9998 49.8125 30.5542 49.8125 37.406Z" fill="#C5BFAD"/>
<path d="M23.2923 35.5221H12.2148V32.7528H14.9842V16.829H12.2148V14.0596H23.2923C24.5328 14.0596 25.7039 14.1981 26.8059 14.475C27.9079 14.7461 28.8829 15.127 29.731 15.6173C30.5849 16.102 31.3494 16.679 32.0244 17.3482C32.7052 18.0175 33.2648 18.7502 33.7033 19.5464C34.1476 20.3426 34.4851 21.1849 34.7159 22.0735C34.9466 22.9561 35.0621 23.862 35.0621 24.7908C35.0621 25.7197 34.9466 26.6285 34.7159 27.517C34.4851 28.3996 34.1476 29.2391 33.7033 30.0353C33.2648 30.8315 32.7052 31.5643 32.0244 32.2335C31.3494 32.9028 30.5849 33.4826 29.731 33.973C28.8829 34.4576 27.9079 34.8384 26.8059 35.1154C25.7039 35.3865 24.5328 35.5221 23.2923 35.5221ZM23.2923 32.7528C24.1923 32.7528 24.9972 32.5537 25.7069 32.1556C26.4165 31.7517 26.9963 31.1921 27.4463 30.4767C27.9021 29.7613 28.2454 28.9247 28.4762 27.967C28.7128 27.0035 28.831 25.9448 28.831 24.7908C28.831 23.8677 28.7618 23.0081 28.6233 22.2119C28.4848 21.4157 28.2685 20.6858 27.9742 20.0224C27.68 19.3531 27.3165 18.7848 26.8838 18.3175C26.4569 17.8444 25.9376 17.478 25.326 17.2184C24.7145 16.9587 24.0366 16.829 23.2923 16.829H20.5229V32.7528H23.2923ZM36.7323 34.8904C36.1957 34.348 35.9275 33.6932 35.9275 32.9258C35.9275 32.1585 36.1957 31.5066 36.7323 30.97C37.2747 30.4276 37.9295 30.1565 38.6969 30.1565C39.4642 30.1565 40.1161 30.4276 40.6527 30.97C41.195 31.5066 41.4662 32.1585 41.4662 32.9258C41.4662 33.6932 41.195 34.348 40.6527 34.8904C40.1161 35.4269 39.4642 35.6952 38.6969 35.6952C37.9295 35.6952 37.2747 35.4269 36.7323 34.8904Z" fill="#F8F8F8"/>
</g>
<defs>
<clipPath id="clip0_1854_1467">
<rect width="50" height="50" fill="white"/>
</clipPath>
</defs>
</svg>
