<svg width="40" height="40" viewBox="0 0 40 40" fill="none" xmlns="http://www.w3.org/2000/svg">
<g clip-path="url(#clip0_1916_4348)">
<path d="M20 40C31.0457 40 40 31.0457 40 20C40 8.95431 31.0457 0 20 0C8.95431 0 0 8.95431 0 20C0 31.0457 8.95431 40 20 40Z" fill="#C0BDB5"/>
<path fill-rule="evenodd" clip-rule="evenodd" d="M5.6709 33.3849C8.02839 28.2622 13.2065 24.7058 19.2154 24.7058H20.784C26.7928 24.7058 31.9709 28.2622 34.3284 33.3849C30.7498 37.2142 25.6543 39.6078 19.9997 39.6078C14.3451 39.6078 9.24949 37.2142 5.6709 33.3849Z" fill="white"/>
<path d="M20 0.75C30.6315 0.75 39.25 9.36852 39.25 20C39.25 30.6315 30.6315 39.25 20 39.25C9.36852 39.25 0.75 30.6315 0.75 20C0.75 9.36852 9.36852 0.75 20 0.75Z" stroke="#F5751E" stroke-width="1.5"/>
<path d="M20 22.353C24.3316 22.353 27.8431 18.8415 27.8431 14.5099C27.8431 10.1782 24.3316 6.66675 20 6.66675C15.6684 6.66675 12.1569 10.1782 12.1569 14.5099C12.1569 18.8415 15.6684 22.353 20 22.353Z" fill="white"/>
</g>
<defs>
<clipPath id="clip0_1916_4348">
<rect width="40" height="40" fill="white"/>
</clipPath>
</defs>
</svg>
