<svg width="48" height="48" viewBox="0 0 48 48" fill="none" xmlns="http://www.w3.org/2000/svg">
<g clip-path="url(#clip0_2162_18)">
<path d="M24 0.240234C37.1223 0.240234 47.7598 10.8777 47.7598 24C47.7598 37.1223 37.1223 47.7598 24 47.7598C10.8777 47.7598 0.240234 37.1223 0.240234 24C0.240234 10.8777 10.8777 0.240234 24 0.240234Z" fill="#C0BDB5" stroke="#9A7A50" stroke-width="0.48"/>
<path d="M24 26.8235C29.198 26.8235 33.4118 22.6097 33.4118 17.4118C33.4118 12.2138 29.198 8 24 8C18.802 8 14.5883 12.2138 14.5883 17.4118C14.5883 22.6097 18.802 26.8235 24 26.8235Z" fill="white"/>
<path fill-rule="evenodd" clip-rule="evenodd" d="M6.80505 40.0619C9.63404 33.9146 15.8478 29.647 23.0584 29.647H24.9408C32.1513 29.647 38.3651 33.9146 41.1941 40.0619C36.8998 44.657 30.7851 47.5293 23.9996 47.5293C17.214 47.5293 11.0994 44.657 6.80505 40.0619Z" fill="white"/>
</g>
<defs>
<clipPath id="clip0_2162_18">
<rect width="48" height="48" fill="white"/>
</clipPath>
</defs>
</svg>
