<svg width="100" height="100" viewBox="0 0 100 100" fill="none" xmlns="http://www.w3.org/2000/svg">
<g clip-path="url(#clip0_896_991)">
<path d="M50 100C77.6142 100 100 77.6142 100 50C100 22.3858 77.6142 0 50 0C22.3858 0 0 22.3858 0 50C0 77.6142 22.3858 100 50 100Z" fill="#C0BDB5" stroke="#9A7A50" stroke-width="0.299103"/>
<path d="M49.9999 55.8824C60.829 55.8824 69.6078 47.1037 69.6078 36.2746C69.6078 25.4455 60.829 16.6667 49.9999 16.6667C39.1708 16.6667 30.3921 25.4455 30.3921 36.2746C30.3921 47.1037 39.1708 55.8824 49.9999 55.8824Z" fill="white"/>
<path fill-rule="evenodd" clip-rule="evenodd" d="M14.1772 83.4624C20.071 70.6556 33.0164 61.7646 48.0384 61.7646H51.96C66.982 61.7646 79.9273 70.6556 85.8211 83.4624C76.8746 93.0355 64.1357 99.0196 49.9992 99.0196C35.8626 99.0196 23.1237 93.0355 14.1772 83.4624Z" fill="white"/>
</g>
<defs>
<clipPath id="clip0_896_991">
<rect width="100" height="100" fill="white"/>
</clipPath>
</defs>
</svg>
