<svg width="26" height="26" viewBox="0 0 26 26" fill="none" xmlns="http://www.w3.org/2000/svg">
<path fill-rule="evenodd" clip-rule="evenodd" d="M25.5 13C25.5 19.9036 19.9036 25.5 13 25.5C6.09644 25.5 0.5 19.9036 0.5 13C0.5 6.09644 6.09644 0.5 13 0.5C19.9036 0.5 25.5 6.09644 25.5 13ZM23 13C23 18.5228 18.5228 23 13 23C7.47715 23 3 18.5228 3 13C3 7.47715 7.47715 3 13 3C18.5228 3 23 7.47715 23 13ZM13.2499 19.25C16.7017 19.25 19.4999 16.4518 19.4999 13C19.4999 9.54822 16.7017 6.75 13.2499 6.75C9.79816 6.75 6.99994 9.54822 6.99994 13C6.99994 16.4518 9.79816 19.25 13.2499 19.25Z" fill="#F5751E"/>
</svg>
