<svg width="32" height="32" viewBox="0 0 32 32" fill="none" xmlns="http://www.w3.org/2000/svg">
<path fill-rule="evenodd" clip-rule="evenodd" d="M11.555 15.8352C15.235 12.1435 18.8318 8.54138 22.3454 5.02884C22.5293 4.83551 22.6319 4.57888 22.6319 4.31204C22.6319 4.04521 22.5293 3.78858 22.3454 3.59524C21.8478 3.04164 21.0606 3.08964 20.7022 3.46724C17.0606 7.11844 13.251 10.9344 9.2734 14.9152C8.95767 15.1744 8.7998 15.4806 8.7998 15.8336C8.7998 16.1867 8.95767 16.5024 9.2734 16.7808L21.2462 28.4704C21.4761 28.6813 21.779 28.7944 22.0908 28.7858C22.4026 28.7771 22.6988 28.6474 22.9166 28.424C23.4894 27.8496 23.2686 27.2832 23.0094 27.0144C19.1853 23.2931 15.3666 19.5662 11.5534 15.8336" fill="white"/>
</svg>
