<svg width="20" height="20" viewBox="0 0 20 20" fill="none" xmlns="http://www.w3.org/2000/svg">
<path fill-rule="evenodd" clip-rule="evenodd" d="M20 10C20 15.5228 15.5228 20 10 20C4.47715 20 0 15.5228 0 10C0 4.47715 4.47715 0 10 0C15.5228 0 20 4.47715 20 10ZM18 10C18 14.4183 14.4183 18 10 18C5.58172 18 2 14.4183 2 10C2 5.58172 5.58172 2 10 2C14.4183 2 18 5.58172 18 10ZM10.2 15C12.9614 15 15.2 12.7614 15.2 10C15.2 7.23858 12.9614 5 10.2 5C7.43858 5 5.2 7.23858 5.2 10C5.2 12.7614 7.43858 15 10.2 15Z" fill="#F5751E"/>
</svg>
