<svg width="36" height="36" viewBox="0 0 36 36" fill="none" xmlns="http://www.w3.org/2000/svg">
<path d="M4 19C4 17.8954 4.89543 17 6 17H16C16.5523 17 17 17.4477 17 18V31C17 32.1046 16.1046 33 15 33H9C6.23858 33 4 30.7614 4 28V19Z" fill="#828282"/>
<path d="M19 18C19 17.4477 19.4477 17 20 17H30C31.1046 17 32 17.8954 32 19V28C32 30.7614 29.7614 33 27 33H21C19.8954 33 19 32.1046 19 31V18Z" fill="#828282"/>
<path d="M11 6C11 4.90795 11.912 4 13.0291 4C15.2084 4 17 5.76894 17 7.92308V8H13C11.8954 8 11 7.10457 11 6Z" stroke="#828282" stroke-width="2"/>
<path d="M25 6C25 4.90795 24.088 4 22.9709 4C20.7916 4 19 5.76894 19 7.92308V8H23C24.1046 8 25 7.10457 25 6Z" stroke="#828282" stroke-width="2"/>
<path fill-rule="evenodd" clip-rule="evenodd" d="M5 9C3.89543 9 3 9.89543 3 11V13C3 14.1046 3.89543 15 5 15H17V12C17 11.4477 17.4477 11 18 11C18.5523 11 19 11.4477 19 12V15H31C32.1046 15 33 14.1046 33 13V11C33 9.89543 32.1046 9 31 9H5Z" fill="#828282"/>
</svg>
