<svg width="12" height="12" viewBox="0 0 12 12" fill="none" xmlns="http://www.w3.org/2000/svg">
<g clip-path="url(#clip0_747_13609)">
<path d="M8 5C8.55228 5 9 4.55228 9 4C9 3.44772 8.55228 3 8 3C7.44772 3 7 3.44772 7 4C7 4.55228 7.44772 5 8 5Z" stroke="#9A9893" stroke-width="0.75"/>
<path d="M1 6.24995L1.876 5.48345C2.09557 5.29148 2.37987 5.19011 2.67136 5.19986C2.96285 5.20961 3.23975 5.32974 3.446 5.53595L5.591 7.68095C5.75745 7.84737 5.97728 7.94974 6.21177 7.97004C6.44627 7.99034 6.68042 7.92728 6.873 7.79195L7.0225 7.68695C7.3003 7.49184 7.63606 7.39673 7.97491 7.41717C8.31376 7.4376 8.63566 7.57237 8.888 7.79945L10.5 9.24995" stroke="#9A9893" stroke-width="0.75" stroke-linecap="round"/>
<path d="M11 6C11 8.357 11 9.5355 10.2675 10.2675C9.536 11 8.357 11 6 11C3.643 11 2.4645 11 1.732 10.2675C1 9.536 1 8.357 1 6C1 3.643 1 2.4645 1.732 1.732C2.465 1 3.643 1 6 1C8.357 1 9.5355 1 10.2675 1.732C10.7545 2.219 10.9175 2.9035 10.9725 4" stroke="#9A9893" stroke-width="0.75" stroke-linecap="round"/>
</g>
<defs>
<clipPath id="clip0_747_13609">
<rect width="12" height="12" fill="white"/>
</clipPath>
</defs>
</svg>
