<svg width="12" height="12" viewBox="0 0 12 12" fill="none" xmlns="http://www.w3.org/2000/svg">
<path fill-rule="evenodd" clip-rule="evenodd" d="M10.75 6.0481C10.75 5.10864 10.4714 4.19027 9.94948 3.40914C9.42754 2.62801 8.68569 2.01919 7.81774 1.65967C6.94979 1.30015 5.99473 1.20609 5.07332 1.38937C4.15191 1.57265 3.30554 2.02504 2.64124 2.68934C1.97694 3.35364 1.52455 4.20001 1.34127 5.12142C1.15799 6.04283 1.25205 6.9979 1.61157 7.86584C1.97109 8.73379 2.5799 9.47564 3.36104 9.99758C4.14217 10.5195 5.06054 10.7981 6 10.7981H10.375C10.4491 10.798 10.5216 10.776 10.5832 10.7348C10.6448 10.6936 10.6928 10.635 10.7211 10.5666C10.7495 10.4981 10.7569 10.4227 10.7425 10.35C10.728 10.2773 10.6924 10.2105 10.64 10.1581L9.6135 9.1311C10.3482 8.27203 10.7513 7.17848 10.75 6.0481ZM6 2.0481C6.79114 2.04807 7.56453 2.28265 8.22235 2.72217C8.88018 3.1617 9.39289 3.78642 9.69565 4.51734C9.99842 5.24827 10.0776 6.05256 9.92328 6.8285C9.76892 7.60444 9.38794 8.31719 8.8285 8.8766C8.75827 8.94691 8.71883 9.04222 8.71883 9.1416C8.71883 9.24097 8.75827 9.33629 8.8285 9.4066L9.4695 10.0481H6C4.93913 10.0481 3.92171 9.62667 3.17157 8.87652C2.42142 8.12638 2 7.10896 2 6.0481C2 4.98723 2.42142 3.96982 3.17157 3.21967C3.92171 2.46953 4.93913 2.0481 6 2.0481Z" fill="#9A9893"/>
</svg>
