<svg width="36" height="36" viewBox="0 0 36 36" fill="none" xmlns="http://www.w3.org/2000/svg">
<path d="M31.791 4.20901C32.5653 4.98342 33.0003 6.03367 33.0003 7.12876C33.0003 8.22385 32.5653 9.2741 31.791 10.0485L31.047 10.7925C30.7766 10.7318 30.5096 10.6562 30.2475 10.566C29.1356 10.1764 28.1263 9.54001 27.2955 8.70451C26.46 7.87374 25.8236 6.86448 25.434 5.75251C25.3443 5.49037 25.2692 5.22346 25.209 4.95301L25.9515 4.20901C26.7259 3.43473 27.7762 2.99976 28.8713 2.99976C29.9664 2.99976 31.0166 3.43473 31.791 4.20901ZM21.87 19.9695C21.264 20.5755 20.961 20.8785 20.6265 21.1395C20.2323 21.4468 19.8058 21.7104 19.3545 21.9255C18.972 22.107 18.5655 22.242 17.7525 22.5135L13.4655 23.943C13.2692 24.0088 13.0584 24.0185 12.8568 23.971C12.6553 23.9235 12.4709 23.8207 12.3246 23.6742C12.1782 23.5277 12.0757 23.3433 12.0284 23.1417C11.9811 22.9401 11.9911 22.7293 12.057 22.533L13.4865 18.2475C13.7565 17.4345 13.8915 17.028 14.0745 16.6455C14.2915 16.1925 14.5535 15.7685 14.8605 15.3735C15.1215 15.039 15.4245 14.736 16.0305 14.1285L23.4045 6.75601C23.9118 8.0855 24.6956 9.29211 25.704 10.296C26.7079 11.3045 27.9145 12.0883 29.244 12.5955L21.87 19.9695Z" fill="#828282"/>
<path d="M30.804 30.804C33 28.605 33 25.071 33 18C33 15.678 33 13.737 32.922 12.099L23.379 21.642C22.8525 22.17 22.4565 22.566 22.011 22.9125C21.4887 23.3216 20.9228 23.6718 20.3235 23.9565C19.8135 24.1995 19.2825 24.3765 18.5745 24.612L14.1765 26.0775C13.584 26.275 12.9482 26.3037 12.3403 26.1602C11.7324 26.0167 11.1765 25.7068 10.7349 25.2651C10.2932 24.8235 9.9833 24.2676 9.83981 23.6597C9.69633 23.0518 9.72496 22.416 9.9225 21.8235L11.388 17.4255C11.6235 16.7175 11.8005 16.1865 12.0435 15.6765C12.3305 15.0765 12.6785 14.514 13.0875 13.989C13.434 13.5435 13.83 13.149 14.358 12.621L23.901 3.078C22.263 3 20.322 3 18 3C10.929 3 7.3935 3 5.196 5.196C3 7.395 3 10.929 3 18C3 25.071 3 28.6065 5.196 30.8025C7.395 33 10.929 33 18 33C25.071 33 28.6065 33 30.8025 30.8025" fill="#828282"/>
</svg>
