<svg width="12" height="12" viewBox="0 0 12 12" fill="none" xmlns="http://www.w3.org/2000/svg">
<path d="M6.00098 12C9.31468 12 12.001 9.31371 12.001 6C12.001 2.68629 9.31468 0 6.00098 0C2.68727 0 0.000976562 2.68629 0.000976562 6C0.000976562 9.31371 2.68727 12 6.00098 12Z" fill="white" fill-opacity="0.5"/>
<path fill-rule="evenodd" clip-rule="evenodd" d="M3.88741 3.64914C3.82201 3.58375 3.71599 3.58375 3.65061 3.64914C3.58521 3.71453 3.58521 3.82055 3.65061 3.88594L5.76501 6.00036L3.65111 8.11426C3.58573 8.17964 3.58573 8.28567 3.65111 8.35105C3.71651 8.41645 3.82252 8.41645 3.88791 8.35105L6.00182 6.23715L8.11572 8.35105C8.18111 8.41645 8.28713 8.41645 8.35252 8.35105C8.41791 8.28567 8.41791 8.17964 8.35252 8.11426L6.23862 6.00036L8.35303 3.88594C8.41842 3.82055 8.41842 3.71453 8.35303 3.64914C8.28764 3.58375 8.18162 3.58375 8.11623 3.64914L6.00182 5.76355L3.88741 3.64914Z" fill="#6B6B6B"/>
</svg>
